<svg xmlns="http://www.w3.org/2000/svg" fill="none" viewBox="22.593613320079523 22.912 115.22862823061631 114.56" style="max-height: 500px" width="115.22862823061631" height="114.56">
<mask fill="white" id="path-1-inside-1_62_1166">
<path d="M23.226 79.9998C23.226 95.06 29.2109 109.503 39.8641 120.153C50.5172 130.802 64.966 136.784 80.0318 136.784C95.0976 136.784 109.546 130.802 120.2 120.153C130.853 109.503 136.838 95.06 136.838 79.9998L115.664 79.9998C115.664 89.4464 111.91 98.5062 105.227 105.186C98.545 111.866 89.4819 115.618 80.0318 115.618C70.5816 115.618 61.5185 111.866 54.8363 105.186C48.154 98.5062 44.3999 89.4464 44.3999 79.9998L23.226 79.9998Z"/>
</mask>
<path mask="url(#path-1-inside-1_62_1166)" stroke-width="600" stroke="#FF4B05" d="M23.226 79.9998C23.226 95.06 29.2109 109.503 39.8641 120.153C50.5172 130.802 64.966 136.784 80.0318 136.784C95.0976 136.784 109.546 130.802 120.2 120.153C130.853 109.503 136.838 95.06 136.838 79.9998L115.664 79.9998C115.664 89.4464 111.91 98.5062 105.227 105.186C98.545 111.866 89.4819 115.618 80.0318 115.618C70.5816 115.618 61.5185 111.866 54.8363 105.186C48.154 98.5062 44.3999 89.4464 44.3999 79.9998L23.226 79.9998Z"/>
<mask fill="white" id="path-2-inside-2_62_1166">
<path d="M136.621 75.0502C135.752 65.1204 132.283 55.5941 126.564 47.429L109.219 59.5693C112.807 64.691 114.982 70.6664 115.527 76.895L136.621 75.0502Z"/>
</mask>
<path mask="url(#path-2-inside-2_62_1166)" stroke-width="600" stroke="#FF4B05" d="M136.621 75.0502C135.752 65.1204 132.283 55.5941 126.564 47.429L109.219 59.5693C112.807 64.691 114.982 70.6664 115.527 76.895L136.621 75.0502Z"/>
<mask fill="white" id="path-3-inside-3_62_1166">
<path d="M123.545 43.4996C117.136 35.8639 108.829 30.0492 99.4584 26.64L92.2165 46.5295C98.094 48.668 103.305 52.3153 107.325 57.1049L123.545 43.4996Z"/>
</mask>
<path mask="url(#path-3-inside-3_62_1166)" stroke-width="600" stroke="#FF4B05" d="M123.545 43.4996C117.136 35.8639 108.829 30.0492 99.4584 26.64L92.2165 46.5295C98.094 48.668 103.305 52.3153 107.325 57.1049L123.545 43.4996Z"/>
<mask fill="white" id="path-4-inside-4_62_1166">
<path d="M94.7312 25.1506C85.0995 22.5708 74.9581 22.5708 65.3264 25.1506L70.8066 45.5954C76.8482 43.9772 83.2094 43.9772 89.251 45.5954L94.7312 25.1506Z"/>
</mask>
<path mask="url(#path-4-inside-4_62_1166)" stroke-width="600" stroke="#FF4B05" d="M94.7312 25.1506C85.0995 22.5708 74.9581 22.5708 65.3264 25.1506L70.8066 45.5954C76.8482 43.9772 83.2094 43.9772 89.251 45.5954L94.7312 25.1506Z"/>
<mask fill="white" id="path-5-inside-5_62_1166">
<path d="M60.6006 26.6404C51.2305 30.0496 42.9232 35.8643 36.5136 43.5001L52.7338 57.1053C56.7542 52.3157 61.965 48.6684 67.8425 46.53L60.6006 26.6404Z"/>
</mask>
<path mask="url(#path-5-inside-5_62_1166)" stroke-width="600" stroke="#FF4B05" d="M60.6006 26.6404C51.2305 30.0496 42.9232 35.8643 36.5136 43.5001L52.7338 57.1053C56.7542 52.3157 61.965 48.6684 67.8425 46.53L60.6006 26.6404Z"/>
<mask fill="white" id="path-6-inside-6_62_1166">
<path d="M33.4956 47.4294C27.7762 55.5945 24.3077 65.1208 23.4386 75.0506L44.5319 76.8954C45.077 70.6668 47.2527 64.6914 50.8402 59.5697L33.4956 47.4294Z"/>
</mask>
<path mask="url(#path-6-inside-6_62_1166)" fill="#FF4B05" d="M33.4956 47.4294L205.611 -198.286L-40.1642 -370.316L-212.28 -124.601L33.4956 47.4294ZM23.4386 75.0506L-275.469 48.9425L-301.618 347.722L-2.74667 373.86L23.4386 75.0506ZM44.5319 76.8954L18.3466 375.705L317.284 401.849L343.439 103.004L44.5319 76.8954ZM50.8402 59.5697L296.616 231.6L468.732 -14.1158L222.956 -186.146L50.8402 59.5697ZM-212.28 -124.601C-248.216 -73.2973 -270.009 -13.4437 -275.469 48.9425L322.346 101.159C318.624 143.685 303.769 184.486 279.271 219.459L-212.28 -124.601ZM-2.74667 373.86L18.3466 375.705L70.7172 -221.914L49.6239 -223.759L-2.74667 373.86ZM343.439 103.004C339.393 149.231 323.245 193.583 296.616 231.6L-194.935 -112.46C-228.74 -64.2004 -249.239 -7.89753 -254.375 50.7872L343.439 103.004ZM222.956 -186.146L205.611 -198.286L-138.62 293.145L-121.276 305.285L222.956 -186.146Z"/>
</svg>