<svg width="215" height="50" viewBox="0 0 215 50" fill="none" xmlns="http://www.w3.org/2000/svg">
<mask id="path-1-inside-1_54_548" fill="white">
<path d="M7.25814 24.9999C7.25814 29.7062 9.12841 34.2198 12.4575 37.5477C15.7866 40.8755 20.3019 42.7451 25.0099 42.7451C29.718 42.7451 34.2332 40.8755 37.5623 37.5477C40.8914 34.2198 42.7617 29.7062 42.7617 24.9999L36.1449 24.9999C36.1449 27.952 34.9717 30.7832 32.8835 32.8706C30.7953 34.958 27.9631 36.1307 25.0099 36.1307C22.0568 36.1307 19.2245 34.958 17.1363 32.8706C15.0481 30.7832 13.875 27.952 13.875 24.9999L7.25814 24.9999Z"/>
</mask>
<path d="M7.25814 24.9999C7.25814 29.7062 9.12841 34.2198 12.4575 37.5477C15.7866 40.8755 20.3019 42.7451 25.0099 42.7451C29.718 42.7451 34.2332 40.8755 37.5623 37.5477C40.8914 34.2198 42.7617 29.7062 42.7617 24.9999L36.1449 24.9999C36.1449 27.952 34.9717 30.7832 32.8835 32.8706C30.7953 34.958 27.9631 36.1307 25.0099 36.1307C22.0568 36.1307 19.2245 34.958 17.1363 32.8706C15.0481 30.7832 13.875 27.952 13.875 24.9999L7.25814 24.9999Z" stroke="#FF4B05" stroke-width="600" mask="url(#path-1-inside-1_54_548)"/>
<mask id="path-2-inside-2_54_548" fill="white">
<path d="M42.694 23.4531C42.4224 20.3501 41.3385 17.3731 39.5511 14.8215L34.1309 18.6154C35.2521 20.2159 35.932 22.0832 36.1023 24.0296L42.694 23.4531Z"/>
</mask>
<path d="M42.694 23.4531C42.4224 20.3501 41.3385 17.3731 39.5511 14.8215L34.1309 18.6154C35.2521 20.2159 35.932 22.0832 36.1023 24.0296L42.694 23.4531Z" stroke="#FF4B05" stroke-width="600" mask="url(#path-2-inside-2_54_548)"/>
<mask id="path-3-inside-3_54_548" fill="white">
<path d="M38.6079 13.5936C36.605 11.2074 34.0089 9.39031 31.0808 8.32494L28.8177 14.5404C30.6544 15.2087 32.2828 16.3485 33.5392 17.8452L38.6079 13.5936Z"/>
</mask>
<path d="M38.6079 13.5936C36.605 11.2074 34.0089 9.39031 31.0808 8.32494L28.8177 14.5404C30.6544 15.2087 32.2828 16.3485 33.5392 17.8452L38.6079 13.5936Z" stroke="#FF4B05" stroke-width="600" mask="url(#path-3-inside-3_54_548)"/>
<mask id="path-4-inside-4_54_548" fill="white">
<path d="M29.6035 7.85956C26.5936 7.05335 23.4244 7.05336 20.4145 7.85956L22.127 14.2486C24.015 13.7429 26.0029 13.7429 27.8909 14.2486L29.6035 7.85956Z"/>
</mask>
<path d="M29.6035 7.85956C26.5936 7.05335 23.4244 7.05336 20.4145 7.85956L22.127 14.2486C24.015 13.7429 26.0029 13.7429 27.8909 14.2486L29.6035 7.85956Z" stroke="#FF4B05" stroke-width="600" mask="url(#path-4-inside-4_54_548)"/>
<mask id="path-5-inside-5_54_548" fill="white">
<path d="M18.9377 8.32512C16.0095 9.39048 13.4135 11.2076 11.4105 13.5938L16.4793 17.8454C17.7357 16.3486 19.3641 15.2089 21.2008 14.5406L18.9377 8.32512Z"/>
</mask>
<path d="M18.9377 8.32512C16.0095 9.39048 13.4135 11.2076 11.4105 13.5938L16.4793 17.8454C17.7357 16.3486 19.3641 15.2089 21.2008 14.5406L18.9377 8.32512Z" stroke="#FF4B05" stroke-width="600" mask="url(#path-5-inside-5_54_548)"/>
<mask id="path-6-inside-6_54_548" fill="white">
<path d="M10.4673 14.8217C8.68003 17.3733 7.59611 20.3502 7.32453 23.4533L13.9162 24.0298C14.0865 22.0833 14.7664 20.216 15.8875 18.6155L10.4673 14.8217Z"/>
</mask>
<path d="M10.4673 14.8217C8.68003 17.3733 7.59611 20.3502 7.32453 23.4533L13.9162 24.0298C14.0865 22.0833 14.7664 20.216 15.8875 18.6155L10.4673 14.8217Z" stroke="#FF4B05" stroke-width="600" mask="url(#path-6-inside-6_54_548)"/>
<path d="M50.2413 38L61.6533 12.8H65.2173L76.6653 38H72.8853L62.6973 14.816H64.1373L53.9493 38H50.2413ZM55.1013 31.7L56.0733 28.82H70.2573L71.3013 31.7H55.1013ZM77.9045 38V17.228C77.9045 15.356 78.4445 13.868 79.5245 12.764C80.6285 11.636 82.1885 11.072 84.2045 11.072C84.9485 11.072 85.6565 11.168 86.3285 11.36C87.0245 11.528 87.6125 11.804 88.0925 12.188L87.0485 14.816C86.6885 14.528 86.2805 14.312 85.8245 14.168C85.3685 14 84.8885 13.916 84.3845 13.916C83.3765 13.916 82.6085 14.204 82.0805 14.78C81.5525 15.332 81.2885 16.16 81.2885 17.264V19.82L81.3605 21.404V38H77.9045ZM74.6645 21.764V18.92H86.8325V21.764H74.6645ZM94.1239 38.216C92.2039 38.216 90.7159 37.7 89.6599 36.668C88.6039 35.636 88.0759 34.16 88.0759 32.24V14.744H91.5319V32.096C91.5319 33.128 91.7839 33.92 92.2879 34.472C92.8159 35.024 93.5599 35.3 94.5199 35.3C95.5999 35.3 96.4999 35 97.2199 34.4L98.2999 36.884C97.7719 37.34 97.1359 37.676 96.3919 37.892C95.6719 38.108 94.9159 38.216 94.1239 38.216ZM84.8359 21.764V18.92H97.0039V21.764H84.8359ZM107.821 38.216C105.781 38.216 103.981 37.796 102.421 36.956C100.885 36.116 99.6853 34.964 98.8213 33.5C97.9813 32.036 97.5613 30.356 97.5613 28.46C97.5613 26.564 97.9693 24.884 98.7853 23.42C99.6253 21.956 100.765 20.816 102.205 20C103.669 19.16 105.313 18.74 107.137 18.74C108.985 18.74 110.617 19.148 112.033 19.964C113.449 20.78 114.553 21.932 115.345 23.42C116.161 24.884 116.569 26.6 116.569 28.568C116.569 28.712 116.557 28.88 116.533 29.072C116.533 29.264 116.521 29.444 116.497 29.612H100.261V27.128H114.697L113.293 27.992C113.317 26.768 113.065 25.676 112.537 24.716C112.009 23.756 111.277 23.012 110.341 22.484C109.429 21.932 108.361 21.656 107.137 21.656C105.937 21.656 104.869 21.932 103.933 22.484C102.997 23.012 102.265 23.768 101.737 24.752C101.209 25.712 100.945 26.816 100.945 28.064V28.64C100.945 29.912 101.233 31.052 101.809 32.06C102.409 33.044 103.237 33.812 104.293 34.364C105.349 34.916 106.561 35.192 107.929 35.192C109.057 35.192 110.077 35 110.989 34.616C111.925 34.232 112.741 33.656 113.437 32.888L115.345 35.12C114.481 36.128 113.401 36.896 112.105 37.424C110.833 37.952 109.405 38.216 107.821 38.216ZM118.848 38V18.92H122.16V24.104L121.836 22.808C122.364 21.488 123.252 20.48 124.5 19.784C125.748 19.088 127.284 18.74 129.108 18.74V22.088C128.964 22.064 128.82 22.052 128.676 22.052C128.556 22.052 128.436 22.052 128.316 22.052C126.468 22.052 125.004 22.604 123.924 23.708C122.844 24.812 122.304 26.408 122.304 28.496V38H118.848ZM141.036 18.74C142.596 18.74 143.964 19.04 145.14 19.64C146.34 20.24 147.276 21.152 147.948 22.376C148.62 23.6 148.956 25.148 148.956 27.02V38H145.5V27.416C145.5 25.568 145.044 24.176 144.132 23.24C143.244 22.304 141.984 21.836 140.352 21.836C139.128 21.836 138.06 22.076 137.148 22.556C136.236 23.036 135.528 23.744 135.024 24.68C134.544 25.616 134.304 26.78 134.304 28.172V38H130.848V18.92H134.16V24.068L133.62 22.7C134.244 21.452 135.204 20.48 136.5 19.784C137.796 19.088 139.308 18.74 141.036 18.74ZM161.004 38.216C159.084 38.216 157.38 37.796 155.892 36.956C154.404 36.116 153.228 34.964 152.364 33.5C151.5 32.012 151.068 30.332 151.068 28.46C151.068 26.564 151.5 24.884 152.364 23.42C153.228 21.956 154.404 20.816 155.892 20C157.38 19.16 159.084 18.74 161.004 18.74C162.9 18.74 164.592 19.16 166.08 20C167.592 20.816 168.768 21.956 169.608 23.42C170.472 24.86 170.904 26.54 170.904 28.46C170.904 30.356 170.472 32.036 169.608 33.5C168.768 34.964 167.592 36.116 166.08 36.956C164.592 37.796 162.9 38.216 161.004 38.216ZM161.004 35.192C162.228 35.192 163.32 34.916 164.28 34.364C165.264 33.812 166.032 33.032 166.584 32.024C167.136 30.992 167.412 29.804 167.412 28.46C167.412 27.092 167.136 25.916 166.584 24.932C166.032 23.924 165.264 23.144 164.28 22.592C163.32 22.04 162.228 21.764 161.004 21.764C159.78 21.764 158.688 22.04 157.728 22.592C156.768 23.144 156 23.924 155.424 24.932C154.848 25.916 154.56 27.092 154.56 28.46C154.56 29.804 154.848 30.992 155.424 32.024C156 33.032 156.768 33.812 157.728 34.364C158.688 34.916 159.78 35.192 161.004 35.192ZM181.335 38.216C179.415 38.216 177.711 37.796 176.223 36.956C174.735 36.116 173.559 34.964 172.695 33.5C171.831 32.012 171.399 30.332 171.399 28.46C171.399 26.564 171.831 24.884 172.695 23.42C173.559 21.956 174.735 20.816 176.223 20C177.711 19.16 179.415 18.74 181.335 18.74C183.231 18.74 184.923 19.16 186.411 20C187.923 20.816 189.099 21.956 189.939 23.42C190.803 24.86 191.235 26.54 191.235 28.46C191.235 30.356 190.803 32.036 189.939 33.5C189.099 34.964 187.923 36.116 186.411 36.956C184.923 37.796 183.231 38.216 181.335 38.216ZM181.335 35.192C182.559 35.192 183.651 34.916 184.611 34.364C185.595 33.812 186.363 33.032 186.915 32.024C187.467 30.992 187.743 29.804 187.743 28.46C187.743 27.092 187.467 25.916 186.915 24.932C186.363 23.924 185.595 23.144 184.611 22.592C183.651 22.04 182.559 21.764 181.335 21.764C180.111 21.764 179.019 22.04 178.059 22.592C177.099 23.144 176.331 23.924 175.755 24.932C175.179 25.916 174.891 27.092 174.891 28.46C174.891 29.804 175.179 30.992 175.755 32.024C176.331 33.032 177.099 33.812 178.059 34.364C179.019 34.916 180.111 35.192 181.335 35.192ZM203.683 18.74C205.243 18.74 206.611 19.04 207.787 19.64C208.987 20.24 209.923 21.152 210.595 22.376C211.267 23.6 211.603 25.148 211.603 27.02V38H208.147V27.416C208.147 25.568 207.691 24.176 206.779 23.24C205.891 22.304 204.631 21.836 202.999 21.836C201.775 21.836 200.707 22.076 199.795 22.556C198.883 23.036 198.175 23.744 197.671 24.68C197.191 25.616 196.951 26.78 196.951 28.172V38H193.495V18.92H196.807V24.068L196.267 22.7C196.891 21.452 197.851 20.48 199.147 19.784C200.443 19.088 201.955 18.74 203.683 18.74Z" fill="#0F1A3A"/>
</svg>
