<svg width="51" height="50" viewBox="0 0 51 50" fill="none" xmlns="http://www.w3.org/2000/svg">
<mask id="path-1-inside-1_54_550" fill="white">
<path d="M7.25814 24.9999C7.25814 29.7062 9.12841 34.2198 12.4575 37.5477C15.7866 40.8755 20.3019 42.7451 25.0099 42.7451C29.718 42.7451 34.2332 40.8755 37.5623 37.5477C40.8914 34.2198 42.7617 29.7062 42.7617 24.9999L36.1449 24.9999C36.1449 27.952 34.9717 30.7832 32.8835 32.8706C30.7953 34.958 27.9631 36.1307 25.0099 36.1307C22.0568 36.1307 19.2245 34.958 17.1363 32.8706C15.0481 30.7832 13.875 27.952 13.875 24.9999L7.25814 24.9999Z"/>
</mask>
<path d="M7.25814 24.9999C7.25814 29.7062 9.12841 34.2198 12.4575 37.5477C15.7866 40.8755 20.3019 42.7451 25.0099 42.7451C29.718 42.7451 34.2332 40.8755 37.5623 37.5477C40.8914 34.2198 42.7617 29.7062 42.7617 24.9999L36.1449 24.9999C36.1449 27.952 34.9717 30.7832 32.8835 32.8706C30.7953 34.958 27.9631 36.1307 25.0099 36.1307C22.0568 36.1307 19.2245 34.958 17.1363 32.8706C15.0481 30.7832 13.875 27.952 13.875 24.9999L7.25814 24.9999Z" stroke="#FF4B05" stroke-width="600" mask="url(#path-1-inside-1_54_550)"/>
<mask id="path-2-inside-2_54_550" fill="white">
<path d="M42.694 23.4531C42.4224 20.3501 41.3385 17.3731 39.5511 14.8215L34.1309 18.6154C35.2521 20.2159 35.932 22.0832 36.1023 24.0296L42.694 23.4531Z"/>
</mask>
<path d="M42.694 23.4531C42.4224 20.3501 41.3385 17.3731 39.5511 14.8215L34.1309 18.6154C35.2521 20.2159 35.932 22.0832 36.1023 24.0296L42.694 23.4531Z" stroke="#FF4B05" stroke-width="600" mask="url(#path-2-inside-2_54_550)"/>
<mask id="path-3-inside-3_54_550" fill="white">
<path d="M38.6079 13.5936C36.605 11.2074 34.0089 9.39031 31.0808 8.32494L28.8177 14.5404C30.6544 15.2087 32.2828 16.3485 33.5392 17.8452L38.6079 13.5936Z"/>
</mask>
<path d="M38.6079 13.5936C36.605 11.2074 34.0089 9.39031 31.0808 8.32494L28.8177 14.5404C30.6544 15.2087 32.2828 16.3485 33.5392 17.8452L38.6079 13.5936Z" stroke="#FF4B05" stroke-width="600" mask="url(#path-3-inside-3_54_550)"/>
<mask id="path-4-inside-4_54_550" fill="white">
<path d="M29.6035 7.85956C26.5936 7.05335 23.4244 7.05336 20.4145 7.85956L22.127 14.2486C24.015 13.7429 26.0029 13.7429 27.8909 14.2486L29.6035 7.85956Z"/>
</mask>
<path d="M29.6035 7.85956C26.5936 7.05335 23.4244 7.05336 20.4145 7.85956L22.127 14.2486C24.015 13.7429 26.0029 13.7429 27.8909 14.2486L29.6035 7.85956Z" stroke="#FF4B05" stroke-width="600" mask="url(#path-4-inside-4_54_550)"/>
<mask id="path-5-inside-5_54_550" fill="white">
<path d="M18.9377 8.32512C16.0095 9.39048 13.4135 11.2076 11.4105 13.5938L16.4793 17.8454C17.7357 16.3486 19.3641 15.2089 21.2008 14.5406L18.9377 8.32512Z"/>
</mask>
<path d="M18.9377 8.32512C16.0095 9.39048 13.4135 11.2076 11.4105 13.5938L16.4793 17.8454C17.7357 16.3486 19.3641 15.2089 21.2008 14.5406L18.9377 8.32512Z" stroke="#FF4B05" stroke-width="600" mask="url(#path-5-inside-5_54_550)"/>
<mask id="path-6-inside-6_54_550" fill="white">
<path d="M10.4673 14.8217C8.68003 17.3733 7.59611 20.3502 7.32453 23.4533L13.9162 24.0298C14.0865 22.0833 14.7664 20.216 15.8875 18.6155L10.4673 14.8217Z"/>
</mask>
<path d="M10.4673 14.8217C8.68003 17.3733 7.59611 20.3502 7.32453 23.4533L13.9162 24.0298C14.0865 22.0833 14.7664 20.216 15.8875 18.6155L10.4673 14.8217Z" stroke="#FF4B05" stroke-width="600" mask="url(#path-6-inside-6_54_550)"/>
</svg>
